# xmcd CD database file
#
# Track frame offsets:
#	150
#	21222
#	38905
#	59962
#	73082
#	87463
#	111212
#	125286
#	137760
#	154741
#	167298
#	177198
#	194959
#
# Disc length: 2910 seconds
#
# Revision: 0
# Processed by: cddbd v1.5PL3 Copyright (c) Steve Scherf et al.
# Submitted via: CDex 1.51
#
DISCID=be0b5c0d
DTITLE=R.C.Finnigan - HEART, BODY AND SOUL
DYEAR=2003
DGENRE=Blues
TTITLE0=Papa Stone
TTITLE1=Heart, Body and Soul
TTITLE2=Robins Egg Blue Coupe De Ville
TTITLE3=Too Sweet To Be Sour
TTITLE4=Blues In The Dark
TTITLE5=Love Can Be Murder
TTITLE6=Why Don't Ya' go ahead on
TTITLE7=Nobody Loves You Like Your Mama Do
TTITLE8=Give It To Me Natural
TTITLE9=Ain't No Way
TTITLE10=Makin' love While It Rains
TTITLE11=Shake That Fat
TTITLE12=Bonus Track
EXTD=YEAR: 2003
EXTT0=
EXTT1=
EXTT2=
EXTT3=
EXTT4=
EXTT5=
EXTT6=
EXTT7=
EXTT8=
EXTT9=
EXTT10=
EXTT11=
EXTT12=
PLAYORDER=
